<svg width="147" height="36" viewBox="0 0 147 36" fill="none" xmlns="http://www.w3.org/2000/svg">
<path d="M23.5293 6.85351C28.6116 0.551612 36.6273 -0.288641 39.9998 0.07897L39.9214 11.4948H37.6481C33.6494 11.4948 29.6469 16.4639 23.5293 25.5229C18.6352 32.7701 11.2418 35.5271 8.15682 35.9998H0V24.8139H6.03919C11.8431 24.8139 17.1764 14.7309 23.5293 6.85351Z" fill="white"/>
<rect x="0.000129699" width="13.1764" height="13.234" fill="white"/>
<path d="M46.2201 8.37214H51.7361L56.636 22.6521L61.564 8.37214H66.828L59.128 28H53.836L46.2201 8.37214ZM73.5405 8.37214H78.8045L87.0364 28H81.5765L76.0325 13.4961L70.3765 28H65.1126L73.5405 8.37214ZM70.1525 20.6081H81.6045V24.4721H70.1525V20.6081ZM88.8127 8.37214H93.3207L103.597 22.0921L102.253 22.5401V8.37214H106.985V28H102.505L92.2287 14.3361L93.6007 13.8881V28H88.8127V8.37214ZM109.116 8.37214H125.944V12.5161H120.064V28H114.94V12.5161H109.116V8.37214ZM132.302 8.37214H137.566L145.798 28H140.338L134.794 13.4961L129.138 28H123.874L132.302 8.37214ZM128.914 20.6081H140.366V24.4721H128.914V20.6081Z" fill="white"/>
</svg>
