<svg width="146" height="36" viewBox="0 0 146 36" fill="none" xmlns="http://www.w3.org/2000/svg">
<path d="M23.5293 6.85354C28.6116 0.551642 36.6272 -0.28861 39.9998 0.0790005L39.9213 11.4948H37.6481C33.6494 11.4948 29.6469 16.4639 23.5293 25.5229C18.6352 32.7701 11.2418 35.5272 8.15681 35.9998H0V24.8139H6.03918C11.8431 24.8139 17.1764 14.7309 23.5293 6.85354Z" fill="#22C993"/>
<rect x="0.000129699" width="13.1764" height="13.234" fill="#22C993"/>
<path d="M132.358 8.18617H137.622L145.854 27.8141H140.394L134.85 13.3101L129.194 27.8141H123.93L132.358 8.18617ZM128.97 20.4221H140.422V24.2861H128.97V20.4221Z" fill="#181A1B"/>
<path d="M109.172 8.18617H126V12.3301H120.12V27.8141H114.996V12.3301H109.172V8.18617Z" fill="#22C993"/>
<path d="M88.8686 8.18617H93.3766L103.653 21.9061L102.309 22.3541V8.18617H107.04V27.8141H102.561L92.2846 14.1501L93.6566 13.7021V27.8141H88.8686V8.18617Z" fill="#181A1B"/>
<path d="M73.5964 8.18617H78.8604L87.0924 27.8141H81.6324L76.0884 13.3101L70.4325 27.8141H65.1685L73.5964 8.18617ZM70.2085 20.4221H81.6604V24.2861H70.2085V20.4221Z" fill="#181A1B"/>
<path d="M46.276 8.18617H51.792L56.692 22.4661L61.62 8.18617H66.8839L59.184 27.8141H53.892L46.276 8.18617Z" fill="#181A1B"/>
</svg>
