<svg width="147" height="36" viewBox="0 0 147 36" fill="none" xmlns="http://www.w3.org/2000/svg">
<path d="M23.5293 6.85354C28.6116 0.551642 36.6272 -0.28861 39.9998 0.0790005L39.9213 11.4948H37.6481C33.6494 11.4948 29.6469 16.4639 23.5293 25.5229C18.6352 32.7701 11.2418 35.5272 8.15681 35.9998H0V24.8139H6.03918C11.8431 24.8139 17.1764 14.7309 23.5293 6.85354Z" fill="#E6E8E8"/>
<rect x="0.000129699" width="13.1764" height="13.234" fill="#E6E8E8"/>
<path d="M46.22 8.37216H51.736L56.636 22.6521L61.564 8.37216H66.8279L59.128 28H53.836L46.22 8.37216ZM73.5404 8.37216H78.8044L87.0364 28H81.5764L76.0324 13.4961L70.3765 28H65.1125L73.5404 8.37216ZM70.1525 20.6081H81.6044V24.4721H70.1525V20.6081ZM88.8126 8.37216H93.3206L103.597 22.0921L102.253 22.5401V8.37216H106.984V28H102.505L92.2286 14.3361L93.6006 13.8881V28H88.8126V8.37216ZM109.116 8.37216H125.944V12.5161H120.064V28H114.94V12.5161H109.116V8.37216ZM132.302 8.37216H137.566L145.798 28H140.338L134.794 13.4961L129.138 28H123.874L132.302 8.37216ZM128.914 20.6081H140.366V24.4721H128.914V20.6081Z" fill="#E6E8E8"/>
</svg>
